<?xml version="1.0" encoding="UTF-8" standalone="no"?>
<!-- Created with Inkscape (http://www.inkscape.org/) -->

<svg
   xmlns:dc="http://purl.org/dc/elements/1.1/"
   xmlns:cc="http://creativecommons.org/ns#"
   xmlns:rdf="http://www.w3.org/1999/02/22-rdf-syntax-ns#"
   xmlns:svg="http://www.w3.org/2000/svg"
   xmlns="http://www.w3.org/2000/svg"
   xmlns:sodipodi="http://sodipodi.sourceforge.net/DTD/sodipodi-0.dtd"
   xmlns:inkscape="http://www.inkscape.org/namespaces/inkscape"
   width="99.022408mm"
   height="35.966797mm"
   viewBox="0 0 350.8668 127.44141"
   id="svg2"
   version="1.1"
   inkscape:version="0.91 r13725"
   sodipodi:docname="aelve.svg">
  <defs
     id="defs4" />
  <sodipodi:namedview
     id="base"
     pagecolor="#000000"
     bordercolor="#666666"
     borderopacity="1.0"
     inkscape:pageopacity="0"
     inkscape:pageshadow="2"
     inkscape:zoom="1.4"
     inkscape:cx="348.92584"
     inkscape:cy="-189.76122"
     inkscape:document-units="px"
     inkscape:current-layer="layer1"
     showgrid="false"
     inkscape:snap-text-baseline="false"
     inkscape:window-width="2560"
     inkscape:window-height="1471"
     inkscape:window-x="0"
     inkscape:window-y="55"
     inkscape:window-maximized="1"
     fit-margin-top="0"
     fit-margin-left="0"
     fit-margin-right="0"
     fit-margin-bottom="0" />
  <metadata
     id="metadata7">
    <rdf:RDF>
      <cc:Work
         rdf:about="">
        <dc:format>image/svg+xml</dc:format>
        <dc:type
           rdf:resource="http://purl.org/dc/dcmitype/StillImage" />
        <dc:title></dc:title>
      </cc:Work>
    </rdf:RDF>
  </metadata>
  <g
     inkscape:label="Layer 1"
     inkscape:groupmode="layer"
     id="layer1"
     transform="translate(-142.90039,-366.67862)">
    <g
       style="font-style:normal;font-variant:normal;font-weight:normal;font-stretch:normal;font-size:10px;line-height:110.00000238%;font-family:Cantarell;-inkscape-font-specification:Cantarell;text-align:start;letter-spacing:0px;word-spacing:0px;writing-mode:lr-tb;text-anchor:start;fill:#000000;fill-opacity:1;stroke:none;stroke-width:1px;stroke-linecap:butt;stroke-linejoin:miter;stroke-opacity:1"
       id="text4155">
      <path
         d="m 213.30078,442.7919 q -8.34961,-21.62109 -18.19336,-44.38476 l -0.35156,0 -18.98438,44.29687 q 9.58008,0.52734 18.8086,0.52734 8.78906,0 18.7207,-0.43945 z m -41.04492,8.4375 q -11.07422,27.07031 -14.94141,41.66016 -2.19726,-0.52735 -8.17383,-0.52735 -4.13085,0 -6.24023,0.52735 30.58594,-67.14844 53.08594,-119.00391 l 5.00976,0 q 6.15235,14.58984 17.40235,42.53906 11.25,27.86133 19.59961,48.25196 8.34961,20.30273 12.30468,28.21289 -3.07617,-0.52735 -10.72265,-0.52735 -5.97656,0 -9.05274,0.52735 -4.39453,-15.90821 -13.97461,-41.66016 -6.94336,-0.52734 -21.09375,-0.43945 -16.08398,-0.0879 -23.20312,0.43945 z"
         style="font-style:normal;font-variant:normal;font-weight:normal;font-stretch:normal;font-size:180px;line-height:110.00000238%;font-family:'Linux Biolinum';-inkscape-font-specification:'Linux Biolinum';fill:#ffffff;fill-opacity:1"
         id="path4198" />
      <path
         d="m 266.95312,443.23135 33.13477,0 q 2.54883,0 2.54883,-2.54882 0,-9.58008 -4.6582,-14.85352 -4.57032,-5.27344 -10.54688,-5.27344 -5.88867,0 -12.2168,5.18555 -6.24023,5.09766 -8.26172,17.49023 z m 48.07618,30.41016 3.60351,4.48242 q -5.18554,7.20703 -13.53515,11.60156 -8.26172,4.39454 -17.8418,4.39454 -18.7207,0 -28.56445,-11.86524 -8.08594,-9.75586 -8.08594,-27.50976 0,-18.89649 11.07422,-30.14649 11.07422,-11.25 25.75195,-11.25 16.17188,0 23.64258,10.2832 7.55859,10.19532 7.55859,23.73047 0,3.07618 -3.25195,3.07618 l -48.95508,0 q 0,15.99609 4.30664,22.85156 6.50391,10.2832 19.59961,10.2832 15.55664,0 24.69727,-9.93164 z"
         style="font-style:normal;font-variant:normal;font-weight:normal;font-stretch:normal;font-size:180px;line-height:110.00000238%;font-family:'Linux Biolinum';-inkscape-font-specification:'Linux Biolinum';fill:#ffffff;fill-opacity:1"
         id="path4200" />
      <path
         d="m 330.36749,456.32706 0,-50.71289 q 0,-25.75196 -1.58203,-34.7168 l 0.35156,-0.61523 q 8.08594,-0.52735 15.64454,-3.60352 1.58203,0 1.66992,1.8457 -1.58203,21.79688 -1.66992,33.83789 l 0,53.96485 q 0,24.08203 1.66992,36.03515 l -0.43946,0.52735 q -3.25195,-0.52735 -8.4375,-0.52735 -5.18554,0 -8.4375,0.52735 l -0.35156,-0.52735 q 1.58203,-11.51367 1.58203,-36.03515 z"
         style="font-style:normal;font-variant:normal;font-weight:normal;font-stretch:normal;font-size:180px;line-height:110.00000238%;font-family:'Linux Biolinum';-inkscape-font-specification:'Linux Biolinum';fill:#ffffff;fill-opacity:1"
         id="path4202" />
      <path
         d="m 384.94391,492.88956 q -15.46875,-40.51758 -32.7832,-78.31055 2.90039,0.52734 10.45898,0.52734 6.67969,0 8.96484,-0.52734 0.87891,2.8125 3.69141,11.95313 2.90039,9.05273 4.21875,13.18359 1.31836,4.13086 3.7793,11.42578 2.46093,7.20703 4.74609,13.18359 2.37305,5.88868 4.92188,11.77735 l 0.43945,0 q 3.6914,-7.82227 7.29492,-18.10547 3.60352,-10.37109 7.73438,-23.37891 4.21875,-13.00781 6.76757,-20.03906 1.58203,0.52734 6.06446,0.52734 5.18554,0 6.85547,-0.52734 -22.32422,50.36133 -32.16797,78.31055 -1.58203,-0.52735 -5.44922,-0.52735 -3.7793,0 -5.53711,0.52735 z"
         style="font-style:normal;font-variant:normal;font-weight:normal;font-stretch:normal;font-size:180px;line-height:110.00000238%;font-family:'Linux Biolinum';-inkscape-font-specification:'Linux Biolinum';fill:#ffffff;fill-opacity:1"
         id="path4204" />
      <path
         d="m 442.08749,443.23135 33.13477,0 q 2.54883,0 2.54883,-2.54882 0,-9.58008 -4.65821,-14.85352 -4.57031,-5.27344 -10.54687,-5.27344 -5.88867,0 -12.2168,5.18555 -6.24023,5.09766 -8.26172,17.49023 z m 48.07618,30.41016 3.60351,4.48242 q -5.18555,7.20703 -13.53515,11.60156 -8.26172,4.39454 -17.8418,4.39454 -18.7207,0 -28.56445,-11.86524 -8.08594,-9.75586 -8.08594,-27.50976 0,-18.89649 11.07422,-30.14649 11.07422,-11.25 25.75195,-11.25 16.17187,0 23.64258,10.2832 7.55859,10.19532 7.55859,23.73047 0,3.07618 -3.25195,3.07618 l -48.95508,0 q 0,15.99609 4.30664,22.85156 6.50391,10.2832 19.59961,10.2832 15.55664,0 24.69727,-9.93164 z"
         style="font-style:normal;font-variant:normal;font-weight:normal;font-stretch:normal;font-size:180px;line-height:110.00000238%;font-family:'Linux Biolinum';-inkscape-font-specification:'Linux Biolinum';fill:#ffffff;fill-opacity:1"
         id="path4206" />
    </g>
  </g>
</svg>
